<?xml version="1.0" standalone="no"?>
<!DOCTYPE svg PUBLIC "-//W3C//DTD SVG 20010904//EN"
 "http://www.w3.org/TR/2001/REC-SVG-20010904/DTD/svg10.dtd">
<svg version="1.0" xmlns="http://www.w3.org/2000/svg"
 width="512.000000pt" height="512.000000pt" viewBox="0 0 512.000000 512.000000"
 preserveAspectRatio="xMidYMid meet">
<metadata>
Created by potrace 1.15, written by Peter Selinger 2001-2017
</metadata>
<g transform="translate(0.000000,512.000000) scale(0.100000,-0.100000)"
fill="#000000" stroke="none">
<path d="M746 4899 c-151 -36 -286 -180 -316 -339 -6 -34 -10 -737 -10 -2009
0 -2139 -3 -2012 57 -2123 37 -67 121 -143 200 -181 l68 -32 1815 0 1815 0 68
32 c128 61 222 180 247 312 14 74 14 3928 0 4002 -25 132 -119 251 -247 312
l-68 32 -1795 2 c-1061 0 -1811 -3 -1834 -8z m236 -429 c68 -19 78 -44 78
-197 0 -206 -7 -213 -216 -213 -136 0 -136 0 -164 28 -35 35 -44 87 -38 217 4
108 21 142 79 162 42 15 211 16 261 3z m3417 -3 c58 -20 75 -54 79 -162 6
-130 -3 -182 -38 -217 l-28 -28 -137 0 c-208 0 -215 7 -215 214 0 150 10 177
73 195 46 13 226 12 266 -2z m-3417 -637 c68 -19 78 -44 78 -197 0 -206 -7
-213 -216 -213 -136 0 -136 0 -164 28 -35 35 -44 87 -38 217 4 108 21 142 79
162 42 15 211 16 261 3z m3417 -3 c58 -20 75 -54 79 -162 6 -130 -3 -182 -38
-217 l-28 -28 -137 0 c-208 0 -215 7 -215 214 0 150 10 177 73 195 46 13 226
12 266 -2z m-1718 -944 c286 -179 518 -328 515 -330 -11 -11 -1051 -613 -1059
-613 -6 0 -7 74 -3 198 3 108 9 394 12 635 4 240 9 437 11 437 3 0 239 -147
524 -327z m-1699 307 c68 -19 78 -44 78 -197 0 -206 -7 -213 -216 -213 -136 0
-136 0 -164 28 -35 35 -44 87 -38 217 4 108 21 142 79 162 42 15 211 16 261 3z
m3417 -3 c58 -20 75 -54 79 -162 6 -130 -3 -182 -38 -217 l-28 -28 -137 0
c-208 0 -215 7 -215 214 0 150 10 177 73 195 46 13 226 12 266 -2z m-3417
-637 c68 -19 78 -44 78 -197 0 -206 -7 -213 -216 -213 -136 0 -136 0 -164 28
-35 36 -44 89 -38 223 5 92 7 102 33 129 15 16 39 31 54 33 55 9 218 6 253 -3z
m3417 -3 c58 -20 75 -54 79 -162 6 -130 -3 -182 -38 -217 l-28 -28 -137 0
c-208 0 -215 7 -215 214 0 150 10 177 73 195 46 13 226 12 266 -2z m-3417
-637 c68 -19 78 -44 78 -197 0 -206 -7 -213 -216 -213 -136 0 -136 0 -164 28
-35 36 -44 89 -38 223 5 92 7 102 33 129 15 16 39 31 54 33 55 9 218 6 253 -3z
m3417 -3 c58 -20 75 -54 79 -162 6 -130 -3 -182 -38 -217 l-28 -28 -137 0
c-208 0 -215 7 -215 214 0 150 10 177 73 195 46 13 226 12 266 -2z m-3417
-637 c68 -19 78 -44 78 -197 0 -206 -7 -213 -216 -213 -136 0 -136 0 -164 28
-35 36 -44 89 -38 223 5 92 7 102 33 129 15 16 39 31 54 33 55 9 218 6 253 -3z
m3417 -3 c58 -20 75 -54 79 -162 6 -130 -3 -182 -38 -217 l-28 -28 -137 0
c-208 0 -215 7 -215 214 0 150 10 177 73 195 46 13 226 12 266 -2z"/>
</g>
</svg>
